<?xml version="1.0" encoding="utf-8"?>
<!-- Generator: Adobe Illustrator 24.1.2, SVG Export Plug-In . SVG Version: 6.00 Build 0)  -->
<svg version="1.1" id="katman_1" xmlns="http://www.w3.org/2000/svg" xmlns:xlink="http://www.w3.org/1999/xlink" x="0px" y="0px"
	 viewBox="0 0 230.45 63.85" style="enable-background:new 0 0 230.45 63.85;" xml:space="preserve">
<style type="text/css">
	.st0{fill:#E1504E;}
	.st1{fill:#FFFFFF;}
</style>
<g>
	<path d="M27.93,41.23v0.05c0,0.92-0.13,1.79-0.4,2.62c-0.27,0.82-0.66,1.55-1.18,2.18c-0.52,0.63-1.17,1.12-1.95,1.49
		c-0.78,0.36-1.69,0.54-2.74,0.54c-0.57,0-1.13-0.06-1.69-0.19c-0.56-0.12-1.09-0.29-1.61-0.5c-0.12-0.09-0.22-0.16-0.28-0.23
		c-0.06-0.06-0.08-0.16-0.04-0.31c0.05-0.12,0.11-0.2,0.19-0.24s0.19-0.03,0.35,0.03c0.53,0.21,1.04,0.39,1.51,0.52
		c0.48,0.13,0.95,0.2,1.41,0.2c0.74,0,1.46-0.12,2.14-0.35c0.68-0.23,1.28-0.6,1.81-1.1c0.52-0.5,0.93-1.17,1.24-1.98
		s0.45-1.8,0.45-2.95v-1.59c-0.18,0.6-0.46,1.15-0.84,1.65c-0.38,0.5-0.82,0.93-1.33,1.29c-0.5,0.36-1.06,0.64-1.66,0.84
		c-0.6,0.19-1.21,0.29-1.83,0.29c-0.89,0-1.72-0.18-2.5-0.53c-0.78-0.35-1.46-0.84-2.03-1.46s-1.03-1.34-1.37-2.17
		s-0.5-1.7-0.5-2.64c0-0.94,0.17-1.82,0.5-2.66s0.79-1.56,1.37-2.18c0.58-0.62,1.25-1.11,2.03-1.47c0.78-0.36,1.61-0.54,2.5-0.54
		c0.62,0,1.23,0.09,1.82,0.28c0.59,0.19,1.14,0.45,1.65,0.8c0.5,0.35,0.95,0.76,1.33,1.25c0.38,0.49,0.67,1.03,0.86,1.63v-3.21
		c0-0.28,0.14-0.43,0.43-0.43c0.25,0,0.37,0.14,0.37,0.43V41.23z M27.11,36.69c0-0.83-0.15-1.62-0.45-2.36
		c-0.3-0.74-0.7-1.39-1.21-1.94c-0.5-0.55-1.1-0.98-1.78-1.3c-0.68-0.32-1.41-0.48-2.19-0.48c-0.8,0-1.54,0.16-2.22,0.48
		c-0.68,0.32-1.27,0.75-1.78,1.3c-0.5,0.55-0.9,1.2-1.2,1.94c-0.29,0.74-0.44,1.53-0.44,2.36c0,0.81,0.15,1.59,0.44,2.32
		c0.29,0.74,0.69,1.38,1.2,1.94c0.5,0.56,1.1,1,1.78,1.32c0.68,0.32,1.42,0.48,2.22,0.48c0.78,0,1.51-0.16,2.19-0.48
		c0.68-0.32,1.27-0.76,1.78-1.32c0.5-0.56,0.91-1.2,1.21-1.94C26.95,38.28,27.11,37.5,27.11,36.69z"/>
	<path d="M43.76,30.58v12.25c0,0.25-0.12,0.37-0.37,0.37c-0.28,0-0.43-0.12-0.43-0.37v-3.4c-0.18,0.6-0.46,1.15-0.84,1.65
		c-0.38,0.5-0.82,0.93-1.33,1.29c-0.5,0.36-1.06,0.64-1.66,0.84c-0.6,0.19-1.21,0.29-1.83,0.29c-0.89,0-1.72-0.18-2.5-0.53
		c-0.78-0.35-1.46-0.84-2.03-1.46s-1.03-1.34-1.37-2.17s-0.5-1.7-0.5-2.64c0-0.94,0.17-1.82,0.5-2.66s0.79-1.56,1.37-2.18
		c0.58-0.62,1.25-1.11,2.03-1.47c0.78-0.36,1.61-0.54,2.5-0.54c0.62,0,1.23,0.09,1.82,0.28c0.59,0.19,1.14,0.45,1.65,0.8
		c0.5,0.35,0.95,0.76,1.33,1.25c0.38,0.49,0.67,1.03,0.86,1.63v-3.21c0-0.28,0.14-0.43,0.43-0.43
		C43.64,30.15,43.76,30.29,43.76,30.58z M42.94,36.69c0-0.83-0.15-1.62-0.45-2.36c-0.3-0.74-0.7-1.39-1.21-1.94
		c-0.5-0.55-1.1-0.98-1.78-1.3c-0.68-0.32-1.41-0.48-2.19-0.48c-0.8,0-1.54,0.16-2.22,0.48c-0.68,0.32-1.27,0.75-1.78,1.3
		c-0.5,0.55-0.9,1.2-1.2,1.94c-0.29,0.74-0.44,1.53-0.44,2.36c0,0.81,0.15,1.59,0.44,2.32c0.29,0.74,0.69,1.38,1.2,1.94
		c0.5,0.56,1.1,1,1.78,1.32c0.68,0.32,1.42,0.48,2.22,0.48c0.78,0,1.51-0.16,2.19-0.48c0.68-0.32,1.27-0.76,1.78-1.32
		c0.5-0.56,0.91-1.2,1.21-1.94C42.79,38.28,42.94,37.5,42.94,36.69z"/>
	<path d="M50.38,48.38c-0.07,0.12-0.17,0.19-0.29,0.19c-0.12,0-0.23-0.04-0.32-0.12c-0.09-0.08-0.13-0.16-0.13-0.25
		c0-0.07,0.01-0.12,0.03-0.16l2.31-5.15l-5.55-12.19c-0.02-0.04-0.03-0.09-0.03-0.16c0-0.09,0.04-0.17,0.11-0.25
		s0.18-0.12,0.32-0.12c0.14,0,0.26,0.06,0.35,0.19l5.23,11.53l5.21-11.4c0.11-0.19,0.23-0.29,0.37-0.29c0.14,0,0.25,0.05,0.33,0.15
		s0.12,0.18,0.12,0.25c0,0.04,0,0.06-0.01,0.08c-0.01,0.02-0.01,0.04-0.01,0.08L50.38,48.38z"/>
	<path d="M69.22,31c0.04,0.04,0.08,0.08,0.12,0.12c0.04,0.04,0.07,0.11,0.07,0.2c0,0.27-0.12,0.4-0.37,0.4
		c-0.11,0-0.2-0.03-0.29-0.08c-0.39-0.23-0.81-0.43-1.25-0.58c-0.44-0.16-0.89-0.24-1.35-0.24c-0.57,0-1.08,0.12-1.55,0.36
		c-0.47,0.24-0.88,0.56-1.22,0.97c-0.35,0.41-0.62,0.89-0.82,1.43c-0.2,0.55-0.31,1.13-0.31,1.75l-0.08,7.49
		c0,0.25-0.13,0.37-0.4,0.37c-0.25,0-0.37-0.12-0.37-0.37V30.6c0-0.25,0.12-0.37,0.37-0.37c0.27,0,0.4,0.12,0.4,0.37v2.18
		c0.3-0.87,0.81-1.55,1.53-2.03c0.72-0.49,1.52-0.73,2.4-0.73c0.57,0,1.12,0.09,1.66,0.27C68.28,30.46,68.77,30.7,69.22,31z"/>
	<path d="M71.05,26.3c0-0.21,0.08-0.4,0.23-0.56c0.15-0.16,0.34-0.24,0.57-0.24c0.21,0,0.4,0.08,0.56,0.24
		c0.16,0.16,0.24,0.35,0.24,0.56c0,0.23-0.08,0.42-0.24,0.57c-0.16,0.15-0.35,0.23-0.56,0.23c-0.23,0-0.42-0.08-0.57-0.23
		C71.12,26.72,71.05,26.53,71.05,26.3z M71.47,30.55c0-0.25,0.13-0.37,0.4-0.37c0.25,0,0.37,0.12,0.37,0.37v12.27
		c0,0.25-0.12,0.37-0.37,0.37c-0.27,0-0.4-0.12-0.4-0.37V30.55z"/>
</g>
<g>
	<path d="M180.87,34.61c-0.55-0.5-1.17-0.88-1.86-1.16c-0.69-0.27-1.43-0.41-2.21-0.41c-0.83,0-1.62,0.16-2.35,0.48
		c-0.74,0.32-1.37,0.75-1.91,1.3c-0.54,0.55-0.97,1.19-1.29,1.91c-0.32,0.73-0.48,1.51-0.48,2.34c0,0.81,0.16,1.59,0.48,2.32
		s0.75,1.38,1.29,1.93c0.54,0.55,1.18,0.98,1.91,1.3c0.73,0.32,1.52,0.48,2.35,0.48c0.8,0,1.55-0.14,2.25-0.41
		c0.7-0.27,1.32-0.67,1.87-1.18c0.11-0.07,0.19-0.11,0.24-0.11c0.11,0,0.2,0.04,0.28,0.13c0.08,0.09,0.12,0.18,0.12,0.27
		c0,0.11-0.07,0.21-0.21,0.32c-0.64,0.57-1.33,1-2.09,1.29c-0.75,0.29-1.56,0.44-2.43,0.44c-0.94,0-1.82-0.18-2.64-0.53
		c-0.82-0.35-1.54-0.84-2.15-1.45c-0.61-0.61-1.1-1.33-1.46-2.15c-0.36-0.82-0.54-1.7-0.54-2.64s0.18-1.82,0.54-2.64
		c0.36-0.82,0.85-1.54,1.46-2.15c0.61-0.61,1.33-1.09,2.15-1.45c0.82-0.35,1.7-0.53,2.64-0.53c0.88,0,1.69,0.16,2.42,0.46
		c0.73,0.31,1.4,0.72,2.02,1.24c0.14,0.11,0.21,0.21,0.21,0.32c0,0.09-0.04,0.18-0.12,0.28c-0.08,0.1-0.16,0.15-0.25,0.15
		C181.03,34.75,180.95,34.7,180.87,34.61z"/>
	<path d="M183.1,39.08c0-0.94,0.18-1.82,0.53-2.64c0.36-0.82,0.84-1.54,1.45-2.15c0.61-0.61,1.33-1.09,2.14-1.45
		c0.82-0.35,1.7-0.53,2.64-0.53s1.82,0.18,2.65,0.53c0.83,0.35,1.54,0.84,2.16,1.45c0.61,0.61,1.1,1.33,1.45,2.15
		c0.35,0.82,0.53,1.7,0.53,2.64s-0.18,1.82-0.53,2.64c-0.36,0.82-0.84,1.54-1.45,2.15c-0.61,0.61-1.33,1.09-2.16,1.45
		s-1.71,0.53-2.65,0.53s-1.82-0.18-2.64-0.53s-1.53-0.84-2.14-1.45c-0.61-0.61-1.1-1.33-1.45-2.15
		C183.28,40.9,183.1,40.01,183.1,39.08z M183.84,39.08c0,0.81,0.16,1.59,0.48,2.32c0.32,0.73,0.75,1.38,1.3,1.93
		c0.55,0.55,1.19,0.98,1.93,1.3s1.51,0.48,2.33,0.48c0.83,0,1.61-0.16,2.34-0.48c0.73-0.32,1.36-0.75,1.91-1.3
		c0.55-0.55,0.98-1.19,1.3-1.93c0.32-0.73,0.48-1.51,0.48-2.32c0-0.83-0.16-1.61-0.48-2.34c-0.32-0.73-0.75-1.36-1.3-1.91
		c-0.55-0.55-1.19-0.98-1.91-1.3c-0.73-0.32-1.51-0.48-2.34-0.48c-0.82,0-1.59,0.16-2.33,0.48s-1.38,0.75-1.93,1.3
		c-0.55,0.55-0.98,1.19-1.3,1.91C184,37.46,183.84,38.24,183.84,39.08z"/>
	<path d="M200.63,45.19c0,0.25-0.13,0.37-0.4,0.37c-0.25,0-0.37-0.12-0.37-0.37V32.91c0-0.25,0.12-0.37,0.37-0.37
		c0.27,0,0.4,0.12,0.4,0.37l0,1.62c0.41-0.6,1-1.11,1.77-1.51c0.77-0.41,1.56-0.61,2.38-0.61c0.96,0,1.77,0.25,2.43,0.74
		c0.66,0.5,1.17,1.17,1.53,2.02c0.18-0.42,0.43-0.81,0.75-1.16c0.33-0.35,0.7-0.64,1.11-0.88c0.42-0.24,0.86-0.42,1.34-0.54
		c0.48-0.12,0.95-0.19,1.43-0.19c0.64,0,1.21,0.12,1.72,0.35c0.51,0.23,0.95,0.55,1.31,0.96c0.36,0.41,0.65,0.89,0.86,1.45
		s0.33,1.16,0.34,1.79v8.24c0,0.25-0.14,0.37-0.41,0.37c-0.24,0-0.36-0.12-0.36-0.37v-8.24c-0.02-0.53-0.11-1.02-0.27-1.47
		s-0.39-0.85-0.69-1.18c-0.3-0.34-0.66-0.6-1.08-0.8c-0.42-0.19-0.89-0.29-1.42-0.29c-0.51,0-1.02,0.09-1.53,0.28
		s-0.96,0.44-1.35,0.77c-0.4,0.33-0.72,0.71-0.97,1.16c-0.25,0.44-0.39,0.92-0.43,1.43v8.34c0,0.25-0.12,0.37-0.37,0.37
		c-0.27,0-0.4-0.12-0.4-0.37v-8.34c-0.02-0.51-0.12-0.99-0.31-1.43c-0.19-0.44-0.43-0.83-0.74-1.16c-0.31-0.33-0.68-0.58-1.1-0.77
		c-0.43-0.19-0.89-0.28-1.41-0.28c-0.53,0-1.05,0.1-1.55,0.29c-0.5,0.2-0.95,0.45-1.33,0.77s-0.69,0.68-0.92,1.09
		c-0.23,0.41-0.34,0.83-0.34,1.28V45.19z"/>
</g>
<path class="st0" d="M103.09,39.98c-1.92,1.45-7.54,4.91-8.73,5.33c-1.08,0.47-3.4,0.38-3.4-1.19c-0.49-0.55-0.64-1.28-0.4-2.09
	c0.25-0.73,0.74-2.13,1.28-3.37l0.89-2.26c-1.58,1.49-6.02,4.31-7.45,5.55c-1.43,1.24-1.43,1.79-2.76,1.79
	c-1.38-0.04-2.66-0.9-2.61-2.22c0-0.64,0.64-1.88,1.23-2.94c0.35-0.64,0.74-1.28,1.18-1.96c-2.07,1.71-6.26,5.38-7.45,6.32
	c-1.18,1.02-1.23,1.37-2.57,0.68c-1.43-0.68-1.18-2.43-1.58-2.77c-0.39-0.34,0.44-1.84,1.43-2.82c0.94-1.02,5.52-5.68,5.92-6.49
	c0.44-0.81,0.99-1.75,1.63-1.54c0.74,0.17,1.28,0.26,1.63,0.55c0.54,0.3,0.84,0.6,0.3,1.49c-0.35,0.47-1.13,1.66-1.97,2.82
	l-1.58,2.18c1.33-1.15,6.26-4.57,6.71-4.78c0.54-0.3,1.08-0.6,2.66,0.21c1.58,0.81,1.58,1.24,1.23,1.75l-1.13,1.71l-0.84,1.28
	c3.4-2.09,6.11-3.63,6.85-3.93c0.74-0.21,3.65,0.73,3.5,2.05c0,1.19-1.63,4.44-2.56,6.36c0.05,0.34,0.2,0.43,0.4,0.26
	c1.04-0.73,8.14-3.93,9.66-4.61C106.1,36.69,105.02,38.53,103.09,39.98z"/>
<path class="st0" d="M109.31,37.97c0.49,0,7.94-3.12,8.33-2.94c0.74,0.47,1.04,1.37,0.44,1.92c-0.79,0.81-1.97,2.05-0.69,1.37
	c1.18-0.68,10.16-3.5,11.98-4.01c1.87-0.55,0.3,1.49-2.22,2.86c-2.51,1.37-9.57,4.52-11.05,4.99c-1.48,0.47-4.49-0.13-3.55-2.43
	c-1.78,0.9-3.8,1.41-4.93,1.79c-1.13,0.34-4.54-0.64-3.99-3.5c0.49-2.82,6.16-5.76,7.74-6.1c1.63-0.34,4.24-0.43,5.57,0.85
	c0.35,0.3-0.15,0.94-0.79,0.81C115.57,33.57,109.31,36.65,109.31,37.97z"/>
<path class="st0" d="M140.28,33.7c-0.84,0-4.44,1.49-7.59,3.29c0.35,1.02,0.59,2.3,1.18,3.71c0.59,1.41,2.02,2.48,3.94,2.01
	c1.23-0.3,2.96-1.19,4.29-1.92c1.33-0.68,0.79,1.32-1.58,3.11c-2.27,1.84-3.3,2.09-4.78,2.09c-2.91,0-6.11-4.57-6.11-6.83
	c-0.44,0.38-0.84,0.81-1.43,1.11c-1.82,3.76-3.01,6.15-4.14,6.02c-1.38-0.13-1.97-3.16-1.18-4.4c0.79-1.19,7.45-13.36,10.8-18.99
	c2.02-3.46,2.66-6.19,3.01-6.83c0.35-0.64,1.53-1.02,3.45-0.13c0.74,0.34,1.38,1.32,1.04,1.79c-0.35,0.3-7.59,11.01-10.75,17.8
	c4.39-2.77,10.11-5.72,12.38-5.59C145.11,30.07,141.22,33.83,140.28,33.7z"/>
<path class="st0" d="M149.9,34.3c-1.28,1.58-4.44,6.79-3.21,5.97c1.23-0.81,7-4.95,8.48-7.51c0.59-1.07,0.84-1.02,1.68-0.9
	c0.89,0.13,3.8,1.24,3.01,2.26c-0.79,0.98-4.14,6.02-4.68,7.47c-0.69,1.54-0.1,2.56-0.94,3.03c-0.79,0.47-1.48,0.21-2.52-0.77
	c-1.08-0.94-0.59-3.07-0.2-4.48c-2.71,1.79-4.19,3.71-6.85,4.27c-2.71,0.55-3.35-2.48-3.5-3.29c-0.15-0.77,3.3-6.15,4.04-7.34
	c0.74-1.24,0.94-1.41,2.12-1.45c1.13-0.04,2.12,0.13,2.86,0.43C150.64,32.21,151.23,32.76,149.9,34.3z"/>
<path class="st0" d="M168.55,31.06c-6.95,11.69-5.42,11.8-6.54,12.82c-1.07,0.98-1.69,1.5-2.73,0.27c-1.04-1.2-0.41-3.04,1.12-5.94
	c1.38-2.9,4.09-10.26,8.18-16.02c4.14-5.85,6.21-8.32,7.4-8.15c1.18,0.21,3.75,1.62,3.75,2.13c0.15,0.51-0.49,0.47-0.89,0.94
	C175.26,21.29,175.4,19.32,168.55,31.06z"/>
<g>
	<path class="st0" d="M167.99,45.72c-2.11,0-3.82-1.71-3.82-3.82s1.71-3.82,3.82-3.82s3.82,1.71,3.82,3.82S170.1,45.72,167.99,45.72
		z"/>
	<path class="st1" d="M167.99,38.68c1.78,0,3.22,1.44,3.22,3.22s-1.44,3.22-3.22,3.22s-3.22-1.44-3.22-3.22
		S166.22,38.68,167.99,38.68 M167.99,37.48c-2.44,0-4.42,1.98-4.42,4.42s1.98,4.42,4.42,4.42c2.44,0,4.42-1.98,4.42-4.42
		S170.43,37.48,167.99,37.48L167.99,37.48z"/>
</g>
</svg>
